<svg width="22" height="22" viewBox="0 0 22 22" fill="none" xmlns="http://www.w3.org/2000/svg">
<path d="M20.677 0.919488C20.2403 0.490679 19.6889 0.195528 19.0883 0.0691219C18.4878 -0.0572839 17.8633 -0.0096285 17.2892 0.206424L2.11347 5.81189C1.6012 6 1.1452 6.31397 0.787968 6.72452C0.430739 7.13507 0.183917 7.62884 0.0705098 8.1598C-0.0428974 8.69075 -0.0191975 9.2416 0.139404 9.76099C0.298005 10.2804 0.586339 10.7514 0.977531 11.1301L3.54834 13.6259L5.00313 12.1502L2.43233 9.6545C2.29161 9.52007 2.18759 9.35229 2.13007 9.16691C2.07255 8.98154 2.06341 8.78467 2.10351 8.59481C2.14056 8.40371 2.22715 8.22553 2.35472 8.07789C2.48229 7.93025 2.64643 7.81827 2.8309 7.753L17.5981 2.29609L3.79745 16.3692C3.68384 16.484 3.59419 16.6201 3.53367 16.7695C3.47316 16.919 3.44295 17.0788 3.4448 17.2399C3.44665 17.4009 3.48052 17.56 3.54446 17.7081C3.6084 17.8561 3.70115 17.9901 3.81737 18.1023C3.93191 18.2166 4.06882 18.3064 4.21965 18.366C4.37047 18.4256 4.532 18.4538 4.69424 18.4489C4.85593 18.4478 5.01579 18.4149 5.16459 18.352C5.31339 18.2891 5.44816 18.1975 5.56113 18.0825L19.3717 3.99952L14.26 18.8154C14.1961 18.9985 14.0866 19.1626 13.9418 19.2925C13.797 19.4223 13.6215 19.5137 13.4317 19.5582C13.2418 19.6027 13.0438 19.5987 12.8559 19.5468C12.668 19.4948 12.4963 19.3965 12.3568 19.261L9.78602 16.7851L8.33122 18.2608L10.8921 20.7466C11.1951 21.0407 11.5535 21.2725 11.9467 21.4288C12.34 21.5852 12.7604 21.6629 13.1839 21.6577C13.4258 21.6574 13.6667 21.6274 13.9013 21.5686C14.4335 21.4441 14.925 21.1869 15.3294 20.8213C15.7339 20.4557 16.038 19.9937 16.213 19.4789L21.4742 4.25701C21.6796 3.68358 21.7136 3.06332 21.5722 2.47109C21.4307 1.87887 21.1198 1.33998 20.677 0.919488Z" fill="#F94A56"/>
</svg>
